<mxfile host="app.diagrams.net" modified="2024-04-03T13:29:52.912Z" agent="Mozilla/5.0 (Windows NT 10.0; Win64; x64; rv:124.0) Gecko/20100101 Firefox/124.0" etag="RZxpz0Hnb8DRqY6ZvaPV" version="24.2.0" type="device">
  <diagram name="Page-1" id="uhlgsrw6Z4iDNZpMUWj9">
    <mxGraphModel dx="1102" dy="505" grid="1" gridSize="10" guides="1" tooltips="1" connect="1" arrows="1" fold="1" page="1" pageScale="1" pageWidth="827" pageHeight="1169" background="#FFFFFF" math="0" shadow="0">
      <root>
        <mxCell id="0" />
        <mxCell id="1" parent="0" />
        <mxCell id="cs5ru4BvWcQS5Nfd89Uc-195" value="b" style="childLayout=tableLayout;recursiveResize=0;strokeColor=none;fillColor=#A7C942;shadow=1;" vertex="1" parent="1">
          <mxGeometry x="40" y="270" width="230" height="113" as="geometry" />
        </mxCell>
        <mxCell id="cs5ru4BvWcQS5Nfd89Uc-196" style="shape=tableRow;horizontal=0;startSize=0;swimlaneHead=0;swimlaneBody=0;top=0;left=0;bottom=0;right=0;dropTarget=0;collapsible=0;recursiveResize=0;expand=0;fontStyle=0;strokeColor=inherit;fillColor=#ffffff;" vertex="1" parent="cs5ru4BvWcQS5Nfd89Uc-195">
          <mxGeometry width="230" height="29" as="geometry" />
        </mxCell>
        <mxCell id="cs5ru4BvWcQS5Nfd89Uc-197" value="var1" style="connectable=0;recursiveResize=0;strokeColor=inherit;fillColor=#00753B;align=center;fontStyle=1;html=1;fontColor=#000000;" vertex="1" parent="cs5ru4BvWcQS5Nfd89Uc-196">
          <mxGeometry width="76" height="29" as="geometry">
            <mxRectangle width="76" height="29" as="alternateBounds" />
          </mxGeometry>
        </mxCell>
        <mxCell id="cs5ru4BvWcQS5Nfd89Uc-198" value="var2" style="connectable=0;recursiveResize=0;strokeColor=inherit;fillColor=#1683B8;align=center;fontStyle=1;fontColor=#000000;html=1;" vertex="1" parent="cs5ru4BvWcQS5Nfd89Uc-196">
          <mxGeometry x="76" width="78" height="29" as="geometry">
            <mxRectangle width="78" height="29" as="alternateBounds" />
          </mxGeometry>
        </mxCell>
        <mxCell id="cs5ru4BvWcQS5Nfd89Uc-199" value="var3" style="connectable=0;recursiveResize=0;strokeColor=inherit;fillColor=#D15700;align=center;fontStyle=1;fontColor=#000000;html=1;" vertex="1" parent="cs5ru4BvWcQS5Nfd89Uc-196">
          <mxGeometry x="154" width="76" height="29" as="geometry">
            <mxRectangle width="76" height="29" as="alternateBounds" />
          </mxGeometry>
        </mxCell>
        <mxCell id="cs5ru4BvWcQS5Nfd89Uc-200" value="" style="shape=tableRow;horizontal=0;startSize=0;swimlaneHead=0;swimlaneBody=0;top=0;left=0;bottom=0;right=0;dropTarget=0;collapsible=0;recursiveResize=0;expand=0;fontStyle=0;strokeColor=inherit;fillColor=#ffffff;" vertex="1" parent="cs5ru4BvWcQS5Nfd89Uc-195">
          <mxGeometry y="29" width="230" height="28" as="geometry" />
        </mxCell>
        <mxCell id="cs5ru4BvWcQS5Nfd89Uc-201" value="a" style="connectable=0;recursiveResize=0;strokeColor=#82b366;fillColor=#d5e8d4;align=center;whiteSpace=wrap;html=1;" vertex="1" parent="cs5ru4BvWcQS5Nfd89Uc-200">
          <mxGeometry width="76" height="28" as="geometry">
            <mxRectangle width="76" height="28" as="alternateBounds" />
          </mxGeometry>
        </mxCell>
        <mxCell id="cs5ru4BvWcQS5Nfd89Uc-202" value="1" style="connectable=0;recursiveResize=0;strokeColor=#6c8ebf;fillColor=#dae8fc;align=center;whiteSpace=wrap;html=1;" vertex="1" parent="cs5ru4BvWcQS5Nfd89Uc-200">
          <mxGeometry x="76" width="78" height="28" as="geometry">
            <mxRectangle width="78" height="28" as="alternateBounds" />
          </mxGeometry>
        </mxCell>
        <mxCell id="cs5ru4BvWcQS5Nfd89Uc-203" value="2024-01-01" style="connectable=0;recursiveResize=0;strokeColor=#d79b00;fillColor=#ffe6cc;align=center;whiteSpace=wrap;html=1;" vertex="1" parent="cs5ru4BvWcQS5Nfd89Uc-200">
          <mxGeometry x="154" width="76" height="28" as="geometry">
            <mxRectangle width="76" height="28" as="alternateBounds" />
          </mxGeometry>
        </mxCell>
        <mxCell id="cs5ru4BvWcQS5Nfd89Uc-204" value="" style="shape=tableRow;horizontal=0;startSize=0;swimlaneHead=0;swimlaneBody=0;top=0;left=0;bottom=0;right=0;dropTarget=0;collapsible=0;recursiveResize=0;expand=0;fontStyle=1;strokeColor=inherit;fillColor=#EAF2D3;" vertex="1" parent="cs5ru4BvWcQS5Nfd89Uc-195">
          <mxGeometry y="57" width="230" height="27" as="geometry" />
        </mxCell>
        <mxCell id="cs5ru4BvWcQS5Nfd89Uc-205" value="b" style="connectable=0;recursiveResize=0;strokeColor=#82b366;fillColor=#d5e8d4;whiteSpace=wrap;html=1;" vertex="1" parent="cs5ru4BvWcQS5Nfd89Uc-204">
          <mxGeometry width="76" height="27" as="geometry">
            <mxRectangle width="76" height="27" as="alternateBounds" />
          </mxGeometry>
        </mxCell>
        <mxCell id="cs5ru4BvWcQS5Nfd89Uc-206" value="2" style="connectable=0;recursiveResize=0;strokeColor=#6c8ebf;fillColor=#dae8fc;whiteSpace=wrap;html=1;" vertex="1" parent="cs5ru4BvWcQS5Nfd89Uc-204">
          <mxGeometry x="76" width="78" height="27" as="geometry">
            <mxRectangle width="78" height="27" as="alternateBounds" />
          </mxGeometry>
        </mxCell>
        <mxCell id="cs5ru4BvWcQS5Nfd89Uc-207" value="2024-01-02" style="connectable=0;recursiveResize=0;strokeColor=#d79b00;fillColor=#ffe6cc;whiteSpace=wrap;html=1;" vertex="1" parent="cs5ru4BvWcQS5Nfd89Uc-204">
          <mxGeometry x="154" width="76" height="27" as="geometry">
            <mxRectangle width="76" height="27" as="alternateBounds" />
          </mxGeometry>
        </mxCell>
        <mxCell id="cs5ru4BvWcQS5Nfd89Uc-208" value="" style="shape=tableRow;horizontal=0;startSize=0;swimlaneHead=0;swimlaneBody=0;top=0;left=0;bottom=0;right=0;dropTarget=0;collapsible=0;recursiveResize=0;expand=0;fontStyle=0;strokeColor=inherit;fillColor=#ffffff;" vertex="1" parent="cs5ru4BvWcQS5Nfd89Uc-195">
          <mxGeometry y="84" width="230" height="29" as="geometry" />
        </mxCell>
        <mxCell id="cs5ru4BvWcQS5Nfd89Uc-209" value="c" style="connectable=0;recursiveResize=0;strokeColor=#82b366;fillColor=#d5e8d4;fontStyle=0;align=center;whiteSpace=wrap;html=1;" vertex="1" parent="cs5ru4BvWcQS5Nfd89Uc-208">
          <mxGeometry width="76" height="29" as="geometry">
            <mxRectangle width="76" height="29" as="alternateBounds" />
          </mxGeometry>
        </mxCell>
        <mxCell id="cs5ru4BvWcQS5Nfd89Uc-210" value="3" style="connectable=0;recursiveResize=0;strokeColor=#6c8ebf;fillColor=#dae8fc;fontStyle=0;align=center;whiteSpace=wrap;html=1;" vertex="1" parent="cs5ru4BvWcQS5Nfd89Uc-208">
          <mxGeometry x="76" width="78" height="29" as="geometry">
            <mxRectangle width="78" height="29" as="alternateBounds" />
          </mxGeometry>
        </mxCell>
        <mxCell id="cs5ru4BvWcQS5Nfd89Uc-211" value="2024-01-03" style="connectable=0;recursiveResize=0;strokeColor=#d79b00;fillColor=#ffe6cc;fontStyle=0;align=center;whiteSpace=wrap;html=1;" vertex="1" parent="cs5ru4BvWcQS5Nfd89Uc-208">
          <mxGeometry x="154" width="76" height="29" as="geometry">
            <mxRectangle width="76" height="29" as="alternateBounds" />
          </mxGeometry>
        </mxCell>
        <mxCell id="cs5ru4BvWcQS5Nfd89Uc-239" value="a" style="connectable=0;recursiveResize=0;strokeColor=#82b366;fillColor=#d5e8d4;align=center;whiteSpace=wrap;html=1;" vertex="1" parent="1">
          <mxGeometry x="298" y="250" width="42" height="30" as="geometry">
            <mxRectangle width="76" height="28" as="alternateBounds" />
          </mxGeometry>
        </mxCell>
        <mxCell id="cs5ru4BvWcQS5Nfd89Uc-240" value="1" style="connectable=0;recursiveResize=0;strokeColor=#6c8ebf;fillColor=#dae8fc;align=center;whiteSpace=wrap;html=1;" vertex="1" parent="1">
          <mxGeometry x="340" y="250" width="40" height="30" as="geometry">
            <mxRectangle width="78" height="28" as="alternateBounds" />
          </mxGeometry>
        </mxCell>
        <mxCell id="cs5ru4BvWcQS5Nfd89Uc-241" value="2024-01-01" style="connectable=0;recursiveResize=0;strokeColor=#d79b00;fillColor=#ffe6cc;align=center;whiteSpace=wrap;html=1;" vertex="1" parent="1">
          <mxGeometry x="380" y="250" width="76" height="30" as="geometry">
            <mxRectangle width="76" height="28" as="alternateBounds" />
          </mxGeometry>
        </mxCell>
        <mxCell id="cs5ru4BvWcQS5Nfd89Uc-254" value="b" style="connectable=0;recursiveResize=0;strokeColor=#82b366;fillColor=#d5e8d4;align=center;whiteSpace=wrap;html=1;" vertex="1" parent="1">
          <mxGeometry x="456" y="250" width="42" height="30" as="geometry">
            <mxRectangle width="76" height="28" as="alternateBounds" />
          </mxGeometry>
        </mxCell>
        <mxCell id="cs5ru4BvWcQS5Nfd89Uc-255" value="2" style="connectable=0;recursiveResize=0;strokeColor=#6c8ebf;fillColor=#dae8fc;align=center;whiteSpace=wrap;html=1;" vertex="1" parent="1">
          <mxGeometry x="498" y="250" width="40" height="30" as="geometry">
            <mxRectangle width="78" height="28" as="alternateBounds" />
          </mxGeometry>
        </mxCell>
        <mxCell id="cs5ru4BvWcQS5Nfd89Uc-256" value="2024-01-02" style="connectable=0;recursiveResize=0;strokeColor=#d79b00;fillColor=#ffe6cc;align=center;whiteSpace=wrap;html=1;" vertex="1" parent="1">
          <mxGeometry x="538" y="250" width="76" height="30" as="geometry">
            <mxRectangle width="76" height="28" as="alternateBounds" />
          </mxGeometry>
        </mxCell>
        <mxCell id="cs5ru4BvWcQS5Nfd89Uc-257" value="c" style="connectable=0;recursiveResize=0;strokeColor=#82b366;fillColor=#d5e8d4;align=center;whiteSpace=wrap;html=1;" vertex="1" parent="1">
          <mxGeometry x="614" y="250" width="42" height="30" as="geometry">
            <mxRectangle width="76" height="28" as="alternateBounds" />
          </mxGeometry>
        </mxCell>
        <mxCell id="cs5ru4BvWcQS5Nfd89Uc-258" value="3" style="connectable=0;recursiveResize=0;strokeColor=#6c8ebf;fillColor=#dae8fc;align=center;whiteSpace=wrap;html=1;" vertex="1" parent="1">
          <mxGeometry x="656" y="250" width="40" height="30" as="geometry">
            <mxRectangle width="78" height="28" as="alternateBounds" />
          </mxGeometry>
        </mxCell>
        <mxCell id="cs5ru4BvWcQS5Nfd89Uc-259" value="2024-01-03" style="connectable=0;recursiveResize=0;strokeColor=#d79b00;fillColor=#ffe6cc;align=center;whiteSpace=wrap;html=1;" vertex="1" parent="1">
          <mxGeometry x="696" y="250" width="76" height="30" as="geometry">
            <mxRectangle width="76" height="28" as="alternateBounds" />
          </mxGeometry>
        </mxCell>
        <mxCell id="cs5ru4BvWcQS5Nfd89Uc-260" value="a" style="connectable=0;recursiveResize=0;strokeColor=#82b366;fillColor=#d5e8d4;align=center;whiteSpace=wrap;html=1;" vertex="1" parent="1">
          <mxGeometry x="298" y="380" width="42" height="30" as="geometry">
            <mxRectangle width="76" height="28" as="alternateBounds" />
          </mxGeometry>
        </mxCell>
        <mxCell id="cs5ru4BvWcQS5Nfd89Uc-261" value="b" style="connectable=0;recursiveResize=0;strokeColor=#82b366;fillColor=#d5e8d4;align=center;whiteSpace=wrap;html=1;" vertex="1" parent="1">
          <mxGeometry x="340" y="380" width="42" height="30" as="geometry">
            <mxRectangle width="76" height="28" as="alternateBounds" />
          </mxGeometry>
        </mxCell>
        <mxCell id="cs5ru4BvWcQS5Nfd89Uc-262" value="c" style="connectable=0;recursiveResize=0;strokeColor=#82b366;fillColor=#d5e8d4;align=center;whiteSpace=wrap;html=1;" vertex="1" parent="1">
          <mxGeometry x="382" y="380" width="42" height="30" as="geometry">
            <mxRectangle width="76" height="28" as="alternateBounds" />
          </mxGeometry>
        </mxCell>
        <mxCell id="cs5ru4BvWcQS5Nfd89Uc-263" value="1" style="connectable=0;recursiveResize=0;strokeColor=#6c8ebf;fillColor=#dae8fc;align=center;whiteSpace=wrap;html=1;" vertex="1" parent="1">
          <mxGeometry x="424" y="380" width="40" height="30" as="geometry">
            <mxRectangle width="78" height="28" as="alternateBounds" />
          </mxGeometry>
        </mxCell>
        <mxCell id="cs5ru4BvWcQS5Nfd89Uc-264" value="2" style="connectable=0;recursiveResize=0;strokeColor=#6c8ebf;fillColor=#dae8fc;align=center;whiteSpace=wrap;html=1;" vertex="1" parent="1">
          <mxGeometry x="464" y="380" width="40" height="30" as="geometry">
            <mxRectangle width="78" height="28" as="alternateBounds" />
          </mxGeometry>
        </mxCell>
        <mxCell id="cs5ru4BvWcQS5Nfd89Uc-265" value="3" style="connectable=0;recursiveResize=0;strokeColor=#6c8ebf;fillColor=#dae8fc;align=center;whiteSpace=wrap;html=1;" vertex="1" parent="1">
          <mxGeometry x="504" y="380" width="40" height="30" as="geometry">
            <mxRectangle width="78" height="28" as="alternateBounds" />
          </mxGeometry>
        </mxCell>
        <mxCell id="cs5ru4BvWcQS5Nfd89Uc-266" value="2024-01-01" style="connectable=0;recursiveResize=0;strokeColor=#d79b00;fillColor=#ffe6cc;align=center;whiteSpace=wrap;html=1;" vertex="1" parent="1">
          <mxGeometry x="544" y="380" width="76" height="30" as="geometry">
            <mxRectangle width="76" height="28" as="alternateBounds" />
          </mxGeometry>
        </mxCell>
        <mxCell id="cs5ru4BvWcQS5Nfd89Uc-267" value="2024-01-02" style="connectable=0;recursiveResize=0;strokeColor=#d79b00;fillColor=#ffe6cc;align=center;whiteSpace=wrap;html=1;" vertex="1" parent="1">
          <mxGeometry x="620" y="380" width="76" height="30" as="geometry">
            <mxRectangle width="76" height="28" as="alternateBounds" />
          </mxGeometry>
        </mxCell>
        <mxCell id="cs5ru4BvWcQS5Nfd89Uc-268" value="2024-01-03" style="connectable=0;recursiveResize=0;strokeColor=#d79b00;fillColor=#ffe6cc;align=center;whiteSpace=wrap;html=1;" vertex="1" parent="1">
          <mxGeometry x="696" y="380" width="76" height="30" as="geometry">
            <mxRectangle width="76" height="28" as="alternateBounds" />
          </mxGeometry>
        </mxCell>
        <mxCell id="cs5ru4BvWcQS5Nfd89Uc-269" value="&lt;font style=&quot;font-size: 14px;&quot;&gt;Column-oriented storage&lt;/font&gt;" style="text;html=1;align=center;verticalAlign=middle;whiteSpace=wrap;rounded=0;fontFamily=Helvetica;fontStyle=0;fontSize=14;" vertex="1" parent="1">
          <mxGeometry x="310" y="340" width="160" height="30" as="geometry" />
        </mxCell>
        <mxCell id="cs5ru4BvWcQS5Nfd89Uc-270" value="&lt;font style=&quot;font-size: 14px;&quot;&gt;Row-oriented storage&lt;/font&gt;" style="text;html=1;align=center;verticalAlign=middle;whiteSpace=wrap;rounded=0;fontFamily=Helvetica;fontStyle=0;fontSize=14;" vertex="1" parent="1">
          <mxGeometry x="310" y="210" width="140" height="30" as="geometry" />
        </mxCell>
      </root>
    </mxGraphModel>
  </diagram>
</mxfile>
